<svg data-v-423bf9ae="" xmlns="http://www.w3.org/2000/svg" viewBox="0 0 357 90" class="iconLeftSlogan"><!----><!----><!----><g data-v-423bf9ae="" id="890df2a6-4f98-478d-b044-0665696ad324" fill="white" transform="matrix(4.535147222295708,0,0,4.535147222295708,145.07178887544757,-14.920634665187904)"><path d="M4.42 3.72C2.62 3.72 1.09 4.77 1.09 6.48C1.09 8.16 2.31 8.85 4.14 9.28C5.71 9.65 6.30 10.16 6.30 11.17C6.30 12.05 5.50 12.60 4.49 12.60C3.36 12.60 2.52 11.97 2.27 10.78L0.67 10.78C0.87 12.73 2.28 13.78 4.49 13.78C6.37 13.78 7.92 12.71 7.92 10.96C7.92 9.35 6.92 8.44 4.79 7.95C3.29 7.60 2.72 7.17 2.72 6.23C2.72 5.32 3.43 4.90 4.34 4.90C5.46 4.90 6.10 5.56 6.22 6.66L7.81 6.66C7.62 4.98 6.57 3.72 4.42 3.72ZM13.58 13.58L15.11 13.58C14.99 12.75 14.97 12.25 14.97 11.69L14.97 9.07C14.97 8.72 14.95 8.33 14.92 8.02C14.80 6.76 14.04 5.95 12.12 5.95C10.43 5.95 9.21 6.87 9.11 8.50L10.65 8.50C10.74 7.57 11.20 7.07 12.10 7.07C12.98 7.07 13.36 7.49 13.40 8.09C13.43 8.37 13.43 8.62 13.43 8.90L13.43 9.09L12.95 9.09C10.14 9.09 8.82 9.98 8.82 11.63C8.82 13.02 9.90 13.78 11.21 13.78C11.91 13.78 12.56 13.65 13.06 13.30L13.44 12.50ZM11.77 12.66C10.96 12.66 10.44 12.29 10.44 11.51C10.44 10.37 11.62 9.97 13.43 10.11L13.43 10.79C13.43 12.00 12.74 12.66 11.77 12.66ZM23.45 6.15L21.81 6.15L19.75 12.45L17.67 6.15L15.97 6.15L18.82 13.58L20.61 13.58ZM27.48 5.95C24.98 5.95 23.72 7.69 23.72 9.86C23.72 12.03 24.98 13.78 27.48 13.78C29.97 13.78 31.25 12.03 31.25 9.86C31.25 7.69 29.97 5.95 27.48 5.95ZM27.48 12.66C26.12 12.66 25.34 11.54 25.34 9.86C25.34 8.18 26.12 7.07 27.48 7.07C28.83 7.07 29.61 8.18 29.61 9.86C29.61 11.54 28.83 12.66 27.48 12.66ZM35.92 5.96C35.55 5.96 35.11 6.12 34.78 6.38L34.15 7.41L34.15 6.15L32.61 6.15L32.61 13.58L34.15 13.58L34.15 9.72C34.15 7.88 35.03 7.15 36.44 7.25L36.44 6.05C36.29 5.99 36.13 5.96 35.92 5.96ZM38.44 6.94L38.61 3.29L37.14 3.29L37.30 6.94ZM46.68 6.15L45.01 6.15L42.98 12.43L40.94 6.15L39.21 6.15L42.21 13.93L42.10 14.20C41.76 15.06 41.29 15.36 40.59 15.36C40.43 15.36 40.28 15.36 40.10 15.34L40.10 16.48C40.32 16.52 40.52 16.52 40.82 16.52C42.17 16.52 42.97 15.82 43.65 14.06Z"></path></g><!----><g data-v-423bf9ae="" id="2e29f341-2cbe-40a5-ab4b-36d0e9017dc5" transform="matrix(1.423464905162312,0,0,1.423464905162312,-6.17249590601557,-25.786248842910425)" stroke="none" fill="white"><path d="M13.705 46.882a31.753 31.753 0 0 1 7.66-1.457c6.631-.441.384 4.153-1.835 5.441-1.61.934-2.27 2.605-1.93 4.339a.387.387 0 0 0 .307.226c.631.114 1.264.218 1.899.313 4.46.14 4.4 3.004 1.431 5.494-1.372 1.15-2.886 2.795-3.218 4.592-.604 3.274 7.615 4.675 9.745 4.653.952-.01 3.686-1.465 1.439-1.441-2.375.025-4.225-1.001-6.223-2.138-3.371-1.919-.171-4.455 1.324-5.871 1.848-1.75 3.961-3.415 1.902-5.875-.404-.483-1.758-.667-2.286-.763-5.947-1.077-1.315-3.377.833-4.788 1.956-1.285 3.603-2.808 2.5-5.271-.1-.223-.391-.259-.602-.271-4.571-.247-8.888.296-13.254 1.677-1.93.61-1.654 1.761.308 1.14zM33.719 32.275a1.23 1.23 0 0 1-.071.403c.025.02.046.044.071.065v-.468z"></path><path d="M94.948 75.79L69.861 20.447c-.097-.214-.294-.329-.548-.342l-3.161.095c-.298-.595-.683-1.066-1.212-1.324-.64-.326-1.514-.489-2.562-.489-1.607 0-3.517.408-4.565.955-.501.268-.757.675-.885 1.141l-5.264.151a.625.625 0 0 0-.408.198.576.576 0 0 0-.151.431l.012.116a.566.566 0 0 0-.512-.303h-3.401c-.256-.652-.606-1.165-1.141-1.479-.967-.571-2.329-.687-3.296-.687-1.444 0-2.946.256-3.843.664-.675.303-.978.873-1.071 1.502h-4.716c-.012 0-.023.012-.035.012-.023 0-.035-.012-.047 0-.035 0-.058.012-.082.023-.035.012-.058.012-.082.023a.248.248 0 0 0-.105.082c-.023.012-.047.023-.07.047-.035.035-.058.082-.082.116-.012.023-.023.035-.035.058-.023.07-.047.14-.047.221v6.497c-2.228-1.48-7.295-2.244-12.31-2.244-6.708 0-13.497 1.363-13.497 3.971v2.329c0 .163.035.314.082.466C5.722 33.586 5 34.949 5 36.486c0 0 0 37.219.012 37.289v.012c.058.699.408 1.328.978 1.898-.012.07-.023.14-.023.198 0 3.214 6.265 5.73 14.278 5.73 8.001 0 14.277-2.515 14.277-5.73 0-.07-.023-.128-.035-.198.571-.571.92-1.199.978-1.898v-.012c.003-.017.005-2.201.007-5.489l15.017 9.563c.093.07.21.093.314.093h5.043c.047.012.07.035.105.035h.082c.035-.012.058-.023.093-.035h1.304c.221.326.431.641.571.873.489.804 1.898 1.165 3.074 1.165 1.304 0 2.306-.419 2.737-1.176.14-.256.245-.547.326-.862h7.628a.587.587 0 0 0 .477-.245.589.589 0 0 0 .07-.536l-.163-.443 1.025.606c.093.047.186.07.291.07h.012c.128.012.28-.058.396-.163l7.081-.21a.4.4 0 0 0 .058.082c.501.71 1.735.967 2.737.967 1.491 0 2.632-.524 3.051-1.386-.027.056-.066.107-.1.16l7.735-.233a.583.583 0 0 0 .512-.821zM58.361 20.367c.745-.396 2.411-.815 4.018-.815.862 0 1.572.128 2.05.361.943.466 1.304 2.69 1.584 4.472.151.897.291 1.747.489 2.422.675 2.201 4.495 8.583 6.149 10.493.303.349.326 1.269.245 2.387L61.54 26.143l-2.259-5.357c-.093-.233-.28-.361-.559-.361l-.431.012.07-.07zm-18.971.268c.745-.326 2.131-.559 3.377-.559 1.165 0 2.131.186 2.713.536.897.524 1.106 2.76 1.269 4.565.082.908.163 1.77.314 2.457.512 2.236 3.878 8.874 5.392 10.889.443.594.093 2.562-.279 4.53l-7.744-10.83-3.75-10.749a.577.577 0 0 0-.559-.396H39.04c.059-.199.164-.362.35-.443zm-19.146 6.442c7.431 0 12.194 1.624 12.31 2.763v.089a.614.614 0 0 1-.129.281c-2.282-1.293-7.255-1.968-12.181-1.968-4.938 0-9.91.675-12.193 1.968-.082-.105-.14-.221-.14-.326 0-1.142 4.81-2.807 12.333-2.807zm-1.63 2.468l-1.537-.151a53.45 53.45 0 0 1 3.168-.105c5.427 0 9.433.792 11.25 1.63-1.817.908-5.823 1.782-11.25 1.782a43.21 43.21 0 0 1-5.543-.338l4.949-.897c.815-.151.885-.629.873-.827-.035-.872-1.607-1.07-1.91-1.094zm-7.419.664l-1.118.699a2.41 2.41 0 0 0-.396.314c-.256-.105-.489-.21-.687-.303.536-.256 1.293-.489 2.201-.71zm-3.284 1.398c2.224 1.491 7.302 2.259 12.333 2.259 5.019 0 10.097-.769 12.321-2.259l-.011.007v.642c.001-.014.011-.029.011-.044 0 1.153-4.798 2.818-12.321 2.818S7.911 33.365 7.911 32.212v-.605zm12.333 48.841c-6.72 0-11.657-1.817-12.834-3.703 2.888 1.665 7.954 2.539 12.834 2.539 4.879 0 9.945-.873 12.833-2.539-1.176 1.887-6.125 3.703-12.833 3.703zm14.068-6.894c0 .221-.058.454-.198.687-1.036 1.956-6.452 3.878-13.87 3.878-7.418 0-12.834-1.922-13.882-3.878a1.32 1.32 0 0 1-.198-.687V36.486c0-1.153.524-2.166 1.339-2.865 1.945 1.689 7.36 2.574 12.74 2.574 5.369 0 10.784-.885 12.729-2.574.815.699 1.339 1.712 1.339 2.865l.001 37.068zm1.16-6.652c.004-10.77.004-30.416.004-30.416 0-1.537-.722-2.888-1.828-3.808.058-.151.082-.303.082-.466v-2.329c0-.023-.01-.044-.011-.067V25.42l16.047 50.59-14.294-9.108zm15.762 9.876L33.94 22.242h5.776l19.006 54.536h-7.488zm12.006-5.636c-.105.489-.233 1.048-.233 1.7 0 .442.035.967.07 1.514.093 1.339.21 3.016-.279 3.878-.21.361-.873.582-1.724.582-1.06 0-1.922-.349-2.073-.594-.047-.093-.116-.186-.175-.28h.71a.605.605 0 0 0 .477-.245.56.56 0 0 0 .07-.524l-2.958-8.49.745-11.005c1.13.815 2.038 1.595 2.317 2.585.373 1.281.116 2.527-.093 3.633-.245 1.188-.443 2.213.233 2.935.501.524 1.002.71 1.432.885.536.21.908.361 1.328 1.095.468.828.328 1.457.153 2.331zm1.072 5.636c.012-.21.012-.419.012-.629 0-.629-.035-1.269-.082-1.875-.035-.512-.07-1.013-.07-1.432 0-.524.105-1.002.198-1.467.21-.943.408-1.922-.268-3.133-.617-1.083-1.304-1.363-1.91-1.607-.373-.14-.699-.268-1.013-.606-.268-.279-.116-1.071.058-1.91.233-1.165.512-2.62.082-4.169-.443-1.549-1.782-2.539-3.354-3.633l.268-3.89a2.313 2.313 0 0 0-.419-1.479l-4.705-6.58c.058-.291.105-.571.163-.839.489-2.609.885-4.67.116-5.706-1.421-1.898-4.716-8.362-5.182-10.446-.14-.617-.221-1.444-.303-2.306-.082-.978-.175-1.956-.361-2.83h2.667l20.718 54.536h-6.615zm7.174-1.805L52.841 25.898l-.047-.71 19.518 50.274-.826-.489zm2.317 1.095L52.724 21.776l5.636-.175 22.837 54.245-7.394.222zm11.948.105c-.21.443-1.013.734-2.003.734-.489 0-.897-.07-1.211-.163.012-.012.023-.012.023-.023a.65.65 0 0 0 .047-.547l-1.956-4.647-.151-14.755c.652.501 1.165 1.025 1.397 1.677.454 1.246.291 2.504.151 3.622-.151 1.211-.291 2.248.443 2.911.536.489 1.048.64 1.491.792.547.175.932.291 1.397.99.524.792.431 1.432.314 2.306-.07.512-.151 1.071-.105 1.712.023.454.105.967.175 1.514.186 1.326.419 2.991-.012 3.877zm1.345-.505c.163-1.079-.015-2.363-.18-3.536-.07-.512-.14-1.002-.175-1.432-.035-.512.035-1.002.105-1.467.128-.955.268-1.945-.501-3.109-.687-1.036-1.386-1.269-2.015-1.467-.384-.116-.71-.221-1.06-.536-.279-.256-.175-1.06-.07-1.898.151-1.188.338-2.667-.21-4.169-.431-1.165-1.351-1.968-2.504-2.713l-.058-5.345c0-.873-.314-1.7-.873-2.364l-5.602-6.685c.221-2.015.279-3.599-.431-4.414-1.549-1.793-5.287-8.001-5.904-10.062-.186-.594-.314-1.409-.454-2.271-.157-.982-.324-1.972-.578-2.846l2.373-.072 24.566 54.193-6.429.193z"></path></g><!----><g data-v-423bf9ae="" id="008eb112-6e1f-43f5-ba7e-0f6e31f377e5" fill="white" transform="matrix(0.45184524037900176,0,0,0.45184524037900176,148.05160100614358,59.05112582519382)"><path d="M6.71 3.70L9.21 11.48L10.40 11.48L13.29 2.21L12.18 2.21L9.80 10.00L7.31 2.21L6.10 2.21L3.61 10.00L1.23 2.21L0.13 2.21L3.01 11.48L4.20 11.48ZM27.99 2.21L27.99 6.33L22.60 6.33L22.60 2.21L21.55 2.21L21.55 11.48L22.60 11.48L22.60 7.35L27.99 7.35L27.99 11.48L29.04 11.48L29.04 2.21ZM45.12 3.22L45.12 2.21L38.30 2.21L38.30 11.48L45.12 11.48L45.12 10.47L39.35 10.47L39.35 7.35L44.51 7.35L44.51 6.33L39.35 6.33L39.35 3.22ZM54.87 7.92L58.09 7.92L60.33 11.48L61.57 11.48L59.14 7.74C60.17 7.50 61.38 6.90 61.38 5.11C61.38 3.35 60.16 2.21 58.25 2.21L53.82 2.21L53.82 11.48L54.87 11.48ZM54.87 3.21L58.13 3.21C59.44 3.21 60.33 3.93 60.33 5.11C60.33 6.55 59.07 6.93 58.07 6.93L54.87 6.93ZM77 3.22L77 2.21L70.18 2.21L70.18 11.48L77 11.48L77 10.47L71.23 10.47L71.23 7.35L76.38 7.35L76.38 6.33L71.23 6.33L71.23 3.22ZM102.26 2.21L94.74 2.21L94.74 3.22L97.97 3.22L97.97 11.48L99.02 11.48L99.02 3.22L102.26 3.22ZM113.92 2.21L112.60 2.21L108.67 11.48L109.83 11.48L110.96 8.79L115.56 8.79L116.69 11.48L117.85 11.48ZM111.37 7.83L113.26 3.30L115.15 7.83ZM126.64 4.65C126.64 4.03 127.01 3.08 129.11 3.08C130.80 3.08 131.59 3.82 131.70 4.75L132.78 4.75C132.69 3.36 131.57 2.10 129.11 2.10C126.78 2.10 125.62 3.15 125.62 4.66C125.62 7.84 131.96 6.69 131.96 8.96C131.96 10.05 130.98 10.60 129.42 10.60C127.81 10.60 126.50 10.05 126.43 8.71L125.34 8.71C125.48 10.37 126.60 11.59 129.35 11.59C131.63 11.59 133.01 10.64 133.01 8.92C133.01 5.68 126.64 6.80 126.64 4.65ZM148.22 2.21L140.70 2.21L140.70 3.22L143.93 3.22L143.93 11.48L144.98 11.48L144.98 3.22L148.22 3.22ZM163.37 3.22L163.37 2.21L156.55 2.21L156.55 11.48L163.37 11.48L163.37 10.47L157.60 10.47L157.60 7.35L162.75 7.35L162.75 6.33L157.60 6.33L157.60 3.22ZM189.84 2.21L186.58 6.61L183.26 2.21L182.04 2.21L182.04 11.48L183.09 11.48L183.09 3.81L186.58 8.22L190.01 3.81L190.01 11.48L191.06 11.48L191.06 2.21ZM207.14 3.22L207.14 2.21L200.33 2.21L200.33 11.48L207.14 11.48L207.14 10.47L201.38 10.47L201.38 7.35L206.53 7.35L206.53 6.33L201.38 6.33L201.38 3.22ZM222.66 3.22L222.66 2.21L215.84 2.21L215.84 11.48L222.66 11.48L222.66 10.47L216.89 10.47L216.89 7.35L222.04 7.35L222.04 6.33L216.89 6.33L216.89 3.22ZM237.93 2.21L230.41 2.21L230.41 3.22L233.65 3.22L233.65 11.48L234.70 11.48L234.70 3.22L237.93 3.22ZM246.88 4.65C246.88 4.03 247.24 3.08 249.34 3.08C251.03 3.08 251.82 3.82 251.93 4.75L253.01 4.75C252.92 3.36 251.80 2.10 249.34 2.10C247.02 2.10 245.85 3.15 245.85 4.66C245.85 7.84 252.20 6.69 252.20 8.96C252.20 10.05 251.22 10.60 249.65 10.60C248.04 10.60 246.74 10.05 246.67 8.71L245.57 8.71C245.71 10.37 246.83 11.59 249.58 11.59C251.86 11.59 253.25 10.64 253.25 8.92C253.25 5.68 246.88 6.80 246.88 4.65ZM280.77 12.15C280.28 12.54 279.75 12.78 279.08 12.78C277.79 12.78 277.12 12.03 276.84 11.51C279.13 11.13 280.67 9.20 280.67 6.85C280.67 4.21 278.78 2.10 275.97 2.10C273.15 2.10 271.26 4.21 271.26 6.85C271.26 9.42 273.07 11.48 275.77 11.58C276.37 12.82 277.68 13.68 279.06 13.68C279.96 13.68 280.67 13.43 281.33 12.91ZM275.97 10.57C273.71 10.57 272.31 8.93 272.31 6.85C272.31 4.76 273.71 3.12 275.97 3.12C278.22 3.12 279.62 4.76 279.62 6.85C279.62 8.93 278.22 10.57 275.97 10.57ZM296.07 2.21L296.07 7.52C296.07 9.67 294.64 10.57 293.17 10.57C291.70 10.57 290.29 9.67 290.29 7.52L290.29 2.21L289.24 2.21L289.24 7.49C289.24 9.95 290.86 11.59 293.17 11.59C295.50 11.59 297.12 9.94 297.12 7.49L297.12 2.21ZM310.10 2.21L308.78 2.21L304.85 11.48L306.01 11.48L307.15 8.79L311.74 8.79L312.87 11.48L314.03 11.48ZM307.55 7.83L309.44 3.30L311.33 7.83ZM322.21 2.21L322.21 11.48L328.31 11.48L328.31 10.47L323.26 10.47L323.26 2.21ZM337.72 2.21L336.67 2.21L336.67 11.48L337.72 11.48ZM353.57 2.21L346.05 2.21L346.05 3.22L349.29 3.22L349.29 11.48L350.34 11.48L350.34 3.22L353.57 3.22ZM365.69 7.81L369.57 2.21L368.30 2.21L365.16 6.72L362.03 2.21L360.75 2.21L364.64 7.81L364.64 11.48L365.69 11.48Z"></path></g></svg>