<svg data-v-423bf9ae="" xmlns="http://www.w3.org/2000/svg" viewBox="0 0 208.66213338594522 60" class="font"><!----><!----><!----><g data-v-423bf9ae="" id="9bbc05af-3ae2-4147-8f48-06806b357eef" fill="white" transform="matrix(4.535147222295708,0,0,4.535147222295708,-3.038547428263385,-14.920634665187904)"><path d="M4.42 3.72C2.62 3.72 1.09 4.77 1.09 6.48C1.09 8.16 2.31 8.85 4.14 9.28C5.71 9.65 6.30 10.16 6.30 11.17C6.30 12.05 5.50 12.60 4.49 12.60C3.36 12.60 2.52 11.97 2.27 10.78L0.67 10.78C0.87 12.73 2.28 13.78 4.49 13.78C6.37 13.78 7.92 12.71 7.92 10.96C7.92 9.35 6.92 8.44 4.79 7.95C3.29 7.60 2.72 7.17 2.72 6.23C2.72 5.32 3.43 4.90 4.34 4.90C5.46 4.90 6.10 5.56 6.22 6.66L7.81 6.66C7.62 4.98 6.57 3.72 4.42 3.72ZM13.58 13.58L15.11 13.58C14.99 12.75 14.97 12.25 14.97 11.69L14.97 9.07C14.97 8.72 14.95 8.33 14.92 8.02C14.80 6.76 14.04 5.95 12.12 5.95C10.43 5.95 9.21 6.87 9.11 8.50L10.65 8.50C10.74 7.57 11.20 7.07 12.10 7.07C12.98 7.07 13.36 7.49 13.40 8.09C13.43 8.37 13.43 8.62 13.43 8.90L13.43 9.09L12.95 9.09C10.14 9.09 8.82 9.98 8.82 11.63C8.82 13.02 9.90 13.78 11.21 13.78C11.91 13.78 12.56 13.65 13.06 13.30L13.44 12.50ZM11.77 12.66C10.96 12.66 10.44 12.29 10.44 11.51C10.44 10.37 11.62 9.97 13.43 10.11L13.43 10.79C13.43 12.00 12.74 12.66 11.77 12.66ZM23.45 6.15L21.81 6.15L19.75 12.45L17.67 6.15L15.97 6.15L18.82 13.58L20.61 13.58ZM27.48 5.95C24.98 5.95 23.72 7.69 23.72 9.86C23.72 12.03 24.98 13.78 27.48 13.78C29.97 13.78 31.25 12.03 31.25 9.86C31.25 7.69 29.97 5.95 27.48 5.95ZM27.48 12.66C26.12 12.66 25.34 11.54 25.34 9.86C25.34 8.18 26.12 7.07 27.48 7.07C28.83 7.07 29.61 8.18 29.61 9.86C29.61 11.54 28.83 12.66 27.48 12.66ZM35.92 5.96C35.55 5.96 35.11 6.12 34.78 6.38L34.15 7.41L34.15 6.15L32.61 6.15L32.61 13.58L34.15 13.58L34.15 9.72C34.15 7.88 35.03 7.15 36.44 7.25L36.44 6.05C36.29 5.99 36.13 5.96 35.92 5.96ZM38.44 6.94L38.61 3.29L37.14 3.29L37.30 6.94ZM46.68 6.15L45.01 6.15L42.98 12.43L40.94 6.15L39.21 6.15L42.21 13.93L42.10 14.20C41.76 15.06 41.29 15.36 40.59 15.36C40.43 15.36 40.28 15.36 40.10 15.34L40.10 16.48C40.32 16.52 40.52 16.52 40.82 16.52C42.17 16.52 42.97 15.82 43.65 14.06Z"></path></g><!----><!----></svg>