<svg width="7778" height="7778" viewBox="0 0 7778 7778" fill="none" xmlns="http://www.w3.org/2000/svg">
<g clip-path="url(#clip0_506_2)">
<mask id="mask0_506_2" style="mask-type:luminance" maskUnits="userSpaceOnUse" x="0" y="0" width="7778" height="7778">
<path d="M7778 0H0V7778H7778V0Z" fill="white"/>
</mask>
<g mask="url(#mask0_506_2)">
<mask id="mask1_506_2" style="mask-type:luminance" maskUnits="userSpaceOnUse" x="0" y="0" width="7778" height="7778">
<path d="M7778 0H0V7778H7778V0Z" fill="white"/>
</mask>
<g mask="url(#mask1_506_2)">
<path fill-rule="evenodd" clip-rule="evenodd" d="M3889 -1610.88L9388.88 3889L3889 9388.88L-1610.88 3889L3889 -1610.88ZM6374.33 1697.7V6080.3C6374.33 6242.69 6242.69 6374.33 6080.31 6374.33H1697.7C1535.31 6374.33 1403.67 6242.69 1403.67 6080.3V1697.69C1403.67 1535.31 1535.31 1403.67 1697.7 1403.67H6080.3C6242.69 1403.67 6374.33 1535.31 6374.33 1697.7Z" fill="#049F39"/>
<path d="M7195.88 3681.09L4096.91 582.12C3982.08 467.293 3795.92 467.293 3681.09 582.12L582.12 3681.09C467.293 3795.91 467.293 3982.08 582.12 4096.91L3681.09 7195.88C3795.92 7310.71 3982.08 7310.71 4096.91 7195.88L7195.88 4096.91C7310.71 3982.08 7310.71 3795.91 7195.88 3681.09Z" fill="#4657EB"/>
</g>
<path d="M3327 5540C3270.33 5540 3215.33 5538.33 3162 5535C3112 5531.67 3063.67 5526.67 3017 5520C2750.33 5476.67 2558.67 5408.33 2442 5315C2325.33 5221.67 2267 5118.33 2267 5005C2267 4905 2305.33 4805 2382 4705C2462 4601.67 2568.67 4508.33 2702 4425C2838.67 4338.33 2995.33 4270 3172 4220C3348.67 4166.67 3537 4140 3737 4140C3790.33 4140 3852 4145 3922 4155C3992 4161.67 4037 4170 4057 4180C4077 4190 4087 4203.33 4087 4220C4087 4243.33 4067 4255 4027 4255H3997C3963.67 4255 3928.67 4253.33 3892 4250C3855.33 4243.33 3818.67 4240 3782 4240C3622 4240 3470.33 4263.33 3327 4310C3183.67 4356.67 3057 4416.67 2947 4490C2837 4563.33 2750.33 4645 2687 4735C2623.67 4821.67 2592 4906.67 2592 4990C2592 5083.33 2633.67 5166.67 2717 5240C2803.67 5313.33 2943.67 5365 3137 5395C3173.67 5398.33 3212 5401.67 3252 5405C3292 5411.67 3330.33 5415 3367 5415C3550.33 5415 3725.33 5385 3892 5325C4058.67 5265 4207 5186.67 4337 5090C4470.33 4990 4575.33 4881.67 4652 4765C4728.67 4648.33 4767 4535 4767 4425C4767 4345 4743.67 4270 4697 4200C4653.67 4130 4580.33 4068.33 4477 4015C4357 3955 4227 3905 4087 3865C3950.33 3821.67 3812 3780 3672 3740C3532 3700 3398.67 3655 3272 3605C3145.33 3555 3033.67 3490 2937 3410C2867 3353.33 2815.33 3288.33 2782 3215C2752 3141.67 2737 3065 2737 2985C2737 2888.33 2758.67 2793.33 2802 2700C2845.33 2603.33 2903.67 2515 2977 2435C3093.67 2311.67 3230.33 2211.67 3387 2135C3543.67 2055 3708.67 1995 3882 1955C4055.33 1915 4223.67 1895 4387 1895H4407C4723.67 1895 4953.67 1945 5097 2045C5243.67 2141.67 5317 2253.33 5317 2380C5317 2480 5273.67 2580 5187 2680C5100.33 2776.67 4978.67 2858.33 4822 2925C4665.33 2988.33 4478.67 3020 4262 3020H4242C4222 3020 4203.67 3011.67 4187 2995C4173.67 2975 4167 2958.33 4167 2945C4167 2928.33 4175.33 2920 4192 2920C4338.67 2920 4477 2886.67 4607 2820C4740.33 2753.33 4847 2671.67 4927 2575C5010.33 2475 5052 2380 5052 2290C5052 2213.33 5012 2146.67 4932 2090C4855.33 2030 4723.67 2000 4537 2000H4522C4362 2000 4198.67 2026.67 4032 2080C3868.67 2133.33 3717 2203.33 3577 2290C3437 2376.67 3323.67 2473.33 3237 2580C3150.33 2683.33 3107 2788.33 3107 2895C3107 2958.33 3125.33 3020 3162 3080C3198.67 3140 3258.67 3195 3342 3245C3448.67 3311.67 3578.67 3366.67 3732 3410C3888.67 3453.33 4050.33 3498.33 4217 3545C4387 3588.33 4545.33 3641.67 4692 3705C4838.67 3768.33 4957 3851.67 5047 3955C5140.33 4055 5187 4185 5187 4345C5187 4378.33 5185.33 4413.33 5182 4450C5178.67 4486.67 5172 4523.33 5162 4560C5118.67 4736.67 5032 4888.33 4902 5015C4772 5138.33 4617 5238.33 4437 5315C4257 5391.67 4068.67 5448.33 3872 5485C3678.67 5521.67 3497 5540 3327 5540Z" fill="white"/>
</g>
</g>
<defs>
<clipPath id="clip0_506_2">
<rect width="7778" height="7778" fill="white"/>
</clipPath>
</defs>
</svg>
