<svg width="7778" height="7778" viewBox="0 0 7778 7778" fill="none" xmlns="http://www.w3.org/2000/svg">
<g clip-path="url(#clip0_504_2)">
<path fill-rule="evenodd" clip-rule="evenodd" d="M3889 -1610.88L9388.88 3889L3889 9388.88L-1610.88 3889L3889 -1610.88ZM6374.33 1697.7L6374.33 6080.3C6374.33 6242.69 6242.69 6374.33 6080.31 6374.33L1697.7 6374.33C1535.31 6374.33 1403.67 6242.69 1403.67 6080.3L1403.67 1697.69C1403.67 1535.31 1535.31 1403.67 1697.7 1403.67L6080.3 1403.67C6242.69 1403.67 6374.33 1535.31 6374.33 1697.7Z" fill="#049F39"/>
<path d="M7195.88 3681.09L4096.91 582.12C3982.08 467.293 3795.92 467.293 3681.09 582.12L582.12 3681.09C467.293 3795.91 467.293 3982.08 582.12 4096.91L3681.09 7195.88C3795.92 7310.71 3982.08 7310.71 4096.91 7195.88L7195.88 4096.91C7310.71 3982.08 7310.71 3795.91 7195.88 3681.09Z" fill="#3B40C4"/>
<path d="M1066.73 2319.36C1818.26 2166.39 2598.56 2061.94 3389.87 2008.36C5405.48 1870.28 3529.03 2668.46 2860.58 2897.01C2375.67 3062.73 2183.78 3336.62 2296.54 3610.42C2305.21 3619.85 2318.44 3627.89 2334.99 3633.69C2351.61 3639.45 2370.89 3642.82 2391.15 3643.39C2583.82 3655.21 2776.94 3665.4 2970.74 3674.12C4328.73 3651.06 4325.78 4109.55 3435.57 4537.96C3024.22 4735.77 2572.33 5014.24 2480.92 5304.9C2314.58 5834.54 4823.27 5974.78 5471.37 5949.6C5761.03 5938.32 6585.17 5677.81 5901.54 5704.51C5178.9 5732.72 4610.47 5587.53 3996.32 5426.1C2960.25 5153.59 3920.45 4715.57 4367.8 4473.91C4920.8 4175.29 5554.92 3887.54 4915.13 3515.19C4789.71 3442.13 4376.61 3426.48 4215.41 3416.52C2399.92 3304.91 3797.16 2889.98 4443.3 2642.5C5031.67 2417.09 5524.72 2156.84 5175.85 1774.26C5144.28 1739.63 5055.51 1736.82 4991.26 1737.08C3598.87 1744.15 2288.07 1874.94 966.865 2140.21C382.792 2257.42 472.93 2438.63 1066.73 2319.36ZM7079.04 -220C7079.42 -198.029 7072.88 -175.978 7059.54 -154.835C7067.27 -151.878 7073.8 -148.275 7081.55 -145.167L7079.04 -220Z" fill="#FAFF00"/>
</g>
<defs>
<clipPath id="clip0_504_2">
<rect width="7778" height="7778" fill="white"/>
</clipPath>
</defs>
</svg>
