<svg width="7778" height="7778" viewBox="0 0 7778 7778" fill="none" xmlns="http://www.w3.org/2000/svg">
<g clip-path="url(#clip0_503_2)">
<path d="M7545.68 3657.85L4117.81 229.977C3990.79 102.964 3784.87 102.964 3657.85 229.977L229.982 3657.85C102.969 3784.86 102.969 3990.79 229.982 4117.8L3657.85 7545.67C3784.87 7672.69 3990.79 7672.69 4117.81 7545.67L7545.68 4117.8C7672.69 3990.79 7672.69 3784.86 7545.68 3657.85Z" fill="#04969F"/>
<path d="M2354.06 3696.63C2459.09 3662.85 2567.89 3642.15 2677.98 3634.99C2958.41 3616.33 2694.23 3810.68 2600.38 3865.17C2532.3 3904.68 2504.39 3975.37 2518.77 4048.73C2519.93 4051.3 2521.73 4053.54 2524 4055.22C2526.28 4056.89 2528.94 4057.95 2531.75 4058.28C2558.44 4063.11 2585.2 4067.51 2612.06 4071.53C2800.67 4077.45 2798.13 4198.6 2672.57 4303.95C2614.55 4352.59 2550.53 4422.19 2536.49 4498.2C2510.94 4636.71 2858.52 4695.97 2948.6 4695.05C2988.86 4694.63 3104.47 4633.07 3009.45 4634.08C2909.01 4635.14 2830.78 4591.74 2746.28 4543.64C2603.73 4462.45 2739.05 4355.18 2802.27 4295.27C2880.42 4221.24 2969.78 4150.8 2882.7 4046.73C2865.63 4026.31 2808.36 4018.52 2786.03 4014.46C2534.54 3968.9 2730.42 3871.6 2821.26 3811.91C2903.98 3757.54 2973.63 3693.12 2926.98 3588.92C2922.76 3579.49 2910.45 3577.96 2901.53 3577.46C2708.22 3567.01 2525.66 3589.98 2341.03 3648.4C2259.41 3674.21 2271.08 3722.9 2354.06 3696.63ZM3200.43 3078.69C3200.38 3084.5 3199.37 3090.27 3197.42 3095.74C3198.48 3096.59 3199.37 3097.6 3200.43 3098.49V3078.69Z" fill="white"/>
<path d="M5789.73 4919.55L4728.83 2578.32C4724.73 2569.27 4716.4 2564.4 4705.66 2563.85L4571.98 2567.87C4559.38 2542.7 4543.09 2522.77 4520.72 2511.86C4493.66 2498.07 4456.7 2491.17 4412.38 2491.17C4344.42 2491.17 4263.65 2508.43 4219.33 2531.57C4198.14 2542.91 4187.32 2560.13 4181.91 2579.84L3959.29 2586.23C3952.7 2586.76 3946.54 2589.75 3942.04 2594.61C3939.79 2597.05 3938.06 2599.93 3936.96 2603.06C3935.87 2606.2 3935.42 2609.53 3935.65 2612.84L3936.16 2617.75C3934.1 2613.81 3930.98 2610.52 3927.16 2608.26C3923.33 2606 3918.96 2604.84 3914.51 2604.93H3770.68C3759.86 2577.35 3745.06 2555.65 3722.44 2542.36C3681.54 2518.2 3623.95 2513.3 3583.05 2513.3C3521.99 2513.3 3458.47 2524.13 3420.53 2541.38C3391.99 2554.21 3379.17 2578.32 3375.24 2604.93H3175.8C3175.3 2604.93 3174.84 2605.44 3174.33 2605.44C3173.35 2605.44 3172.85 2604.93 3172.34 2605.44C3170.86 2605.44 3169.89 2605.94 3168.87 2606.41C3167.39 2606.92 3166.42 2606.92 3165.4 2607.38C3163.63 2608.11 3162.1 2609.31 3160.96 2610.85C3159.99 2611.36 3158.98 2611.82 3158.01 2612.84C3156.53 2614.32 3155.55 2616.31 3154.53 2617.75C3154.03 2618.72 3153.56 2619.23 3153.06 2620.2C3152.08 2623.16 3151.07 2626.12 3151.07 2629.55V2904.4C3056.85 2841.79 2842.57 2809.47 2630.49 2809.47C2346.82 2809.47 2059.72 2867.13 2059.72 2977.46V3075.98C2059.72 3082.88 2061.2 3089.26 2063.18 3095.7C2016.45 3134.15 1985.92 3191.81 1985.92 3256.84C1985.92 3256.84 1985.92 4831.35 1986.43 4834.31V4834.82C1988.88 4864.38 2003.69 4891 2027.79 4915.11C2027.28 4918.07 2026.82 4921.03 2026.82 4923.49C2026.82 5059.45 2291.76 5165.89 2630.62 5165.89C2968.97 5165.89 3234.37 5059.49 3234.37 4923.49C3234.37 4920.53 3233.41 4918.07 3232.9 4915.11C3257.04 4890.96 3271.8 4864.38 3274.25 4834.82V4834.31C3274.39 4833.59 3274.47 4741.2 3274.55 4602.11L3909.61 5006.66C3913.54 5009.62 3918.49 5010.59 3922.89 5010.59H4136.15C4138.14 5011.1 4139.11 5012.07 4140.59 5012.07H4144.05C4145.54 5011.56 4146.51 5011.1 4147.99 5010.59H4203.13C4212.48 5024.38 4221.36 5037.71 4227.28 5047.52C4247.96 5081.53 4307.55 5096.8 4357.28 5096.8C4412.42 5096.8 4454.79 5079.08 4473.02 5047.06C4478.94 5036.23 4483.38 5023.92 4486.81 5010.59H4809.39C4813.33 5010.59 4817.22 5009.65 4820.73 5007.85C4824.24 5006.04 4827.26 5003.43 4829.56 5000.22C4831.83 4996.96 4833.28 4993.19 4833.79 4989.25C4834.31 4985.3 4833.88 4981.29 4832.52 4977.55L4825.63 4958.81L4868.97 4984.44C4872.9 4986.43 4876.84 4987.41 4881.28 4987.41H4881.79C4887.2 4987.91 4893.63 4984.96 4898.53 4980.51L5197.98 4971.63C5198.65 4972.88 5199.48 4974.05 5200.43 4975.1C5221.62 5005.14 5273.8 5016.01 5316.18 5016.01C5379.23 5016.01 5427.48 4993.84 5445.2 4957.37C5444.06 4959.74 5442.41 4961.9 5440.97 4964.14L5768.08 4954.28C5772.12 4954.14 5776.06 4953.01 5779.56 4950.99C5783.06 4948.97 5786.01 4946.12 5788.15 4942.68C5790.29 4939.25 5791.55 4935.35 5791.83 4931.31C5792.11 4927.28 5791.39 4923.24 5789.73 4919.55ZM4242.5 2574.93C4274.01 2558.18 4344.46 2540.46 4412.42 2540.46C4448.87 2540.46 4478.9 2545.87 4499.12 2555.73C4538.99 2575.44 4554.26 2669.53 4566.1 2744.91C4572.48 2782.86 4578.4 2818.82 4586.78 2847.37C4615.32 2940.48 4776.87 3210.47 4846.82 3291.27C4859.62 3306.03 4860.6 3344.95 4857.17 3392.25L4376.94 2819.28L4281.41 2592.66C4277.48 2582.8 4269.57 2577.39 4257.77 2577.39L4239.54 2577.89L4242.5 2574.93ZM3440.24 2586.27C3471.74 2572.48 3530.36 2562.62 3583.05 2562.62C3632.32 2562.62 3673.17 2570.49 3697.78 2585.3C3735.71 2607.46 3744.55 2702.06 3751.45 2778.42C3754.91 2816.83 3758.34 2853.29 3764.73 2882.36C3786.38 2976.95 3928.72 3257.76 3992.74 3343C4011.48 3368.14 3996.68 3451.39 3980.95 3534.64L3653.46 3076.49L3494.88 2621.77C3493.24 2616.81 3490.07 2612.51 3485.81 2609.5C3481.55 2606.49 3476.45 2604.91 3471.24 2605.01H3425.44C3427.93 2596.59 3432.37 2589.7 3440.24 2586.27ZM2630.58 2858.8C2944.82 2858.8 3146.25 2927.5 3151.16 2975.68V2979.44C3150.38 2983.81 3148.5 2987.9 3145.7 2991.33C3049.2 2936.63 2838.89 2908.08 2630.58 2908.08C2421.75 2908.08 2211.49 2936.63 2114.94 2991.33C2111.48 2986.89 2109.03 2981.98 2109.03 2977.54C2109.03 2929.23 2312.44 2858.8 2630.58 2858.8ZM2561.65 2963.2L2496.65 2956.82C2541.25 2954.01 2585.93 2952.53 2630.62 2952.37C2860.12 2952.37 3029.53 2985.87 3106.37 3021.32C3029.53 3059.74 2860.12 3096.71 2630.62 3096.71C2552.26 3096.98 2473.96 3092.2 2396.21 3082.41L2605.5 3044.46C2639.97 3038.08 2642.92 3017.86 2642.42 3009.48C2640.94 2972.59 2574.46 2964.21 2561.65 2963.2ZM2247.9 2991.29L2200.63 3020.86C2194.59 3024.69 2188.98 3029.14 2183.88 3034.15C2173.05 3029.7 2163.2 3025.26 2154.82 3021.32C2177.49 3010.49 2209.51 3000.64 2247.9 2991.29ZM2109.03 3050.43C2203.08 3113.5 2417.82 3146 2630.58 3146C2842.82 3146 3057.57 3113.46 3151.62 3050.43L3151.16 3050.73V3077.89C3151.2 3077.29 3151.62 3076.66 3151.62 3076.03C3151.62 3124.8 2948.71 3195.23 2630.58 3195.23C2312.44 3195.23 2109.03 3124.8 2109.03 3076.03V3050.43ZM2630.58 5116.6C2346.4 5116.6 2137.61 5039.73 2087.84 4959.96C2209.97 5030.39 2424.2 5067.36 2630.58 5067.36C2836.9 5067.36 3051.14 5030.43 3173.27 4959.96C3123.54 5039.78 2914.25 5116.6 2630.58 5116.6ZM3225.5 4824.96C3225.5 4834.31 3223.05 4844.16 3217.12 4854.02C3173.31 4936.77 2944.28 5018.08 2630.58 5018.08C2316.88 5018.08 2087.84 4936.77 2043.52 4854.02C2038.11 4845.29 2035.21 4835.23 2035.15 4824.96V3256.84C2035.15 3208.06 2057.31 3165.2 2091.77 3135.63C2174.03 3207.08 2403.02 3244.53 2630.53 3244.53C2857.58 3244.53 3086.58 3207.08 3168.83 3135.63C3203.3 3165.2 3225.46 3208.06 3225.46 3256.84L3225.5 4824.96ZM3274.55 4543.56C3274.72 4087.94 3274.72 3256.84 3274.72 3256.84C3274.72 3191.81 3244.19 3134.66 3197.42 3095.74C3199.87 3089.35 3200.88 3082.92 3200.88 3076.03V2977.5C3200.88 2976.52 3200.46 2975.64 3200.42 2974.66V2788.7L3879.03 4928.86L3274.55 4543.56ZM3941.11 4961.35L3209.77 2654.26H3454.03L4257.77 4961.35H3941.11ZM4448.83 4722.92C4444.39 4743.61 4438.98 4767.26 4438.98 4794.84C4438.98 4813.54 4440.46 4835.75 4441.94 4858.89C4445.87 4915.53 4450.82 4986.48 4430.14 5022.94C4421.26 5038.21 4393.22 5047.56 4357.24 5047.56C4312.41 5047.56 4275.96 5032.8 4269.57 5022.44C4267.58 5018.5 4264.66 5014.57 4262.17 5010.59H4292.2C4296.13 5010.53 4299.99 5009.56 4303.49 5007.76C4306.99 5005.97 4310.02 5003.38 4312.37 5000.22C4314.65 4997.06 4316.11 4993.38 4316.62 4989.51C4317.14 4985.65 4316.69 4981.71 4315.32 4978.06L4190.23 4618.9L4221.74 4153.34C4269.53 4187.82 4307.93 4220.82 4319.72 4262.7C4335.49 4316.89 4324.63 4369.6 4315.79 4416.39C4305.43 4466.65 4297.05 4510.01 4325.64 4540.55C4346.83 4562.72 4368.02 4570.58 4386.2 4577.99C4408.87 4586.87 4424.6 4593.26 4442.36 4624.31C4462.15 4659.34 4456.23 4685.95 4448.83 4722.92ZM4494.17 4961.35C4494.67 4952.46 4494.67 4943.62 4494.67 4934.74C4494.67 4908.13 4493.19 4881.05 4491.21 4855.42C4489.73 4833.76 4488.25 4812.57 4488.25 4794.84C4488.25 4772.67 4492.69 4752.45 4496.62 4732.78C4505.5 4692.89 4513.87 4651.47 4485.28 4600.24C4459.2 4554.43 4430.14 4542.58 4404.51 4532.25C4388.74 4526.34 4374.95 4520.92 4361.67 4506.62C4350.34 4494.82 4356.77 4461.31 4364.13 4425.82C4373.98 4376.54 4385.78 4314.98 4367.6 4249.46C4348.86 4183.93 4292.24 4142.05 4225.76 4095.77L4237.09 3931.2C4238.49 3908.94 4232.24 3886.86 4219.37 3868.63L4020.4 3590.27C4022.85 3577.96 4024.85 3566.12 4027.29 3554.78C4047.97 3444.41 4064.72 3357.22 4032.2 3313.39C3972.11 3233.1 3832.77 2959.65 3813.06 2871.49C3807.14 2845.38 3803.71 2810.4 3800.25 2773.93C3796.78 2732.56 3792.85 2691.19 3784.98 2654.21H3897.77L4773.91 4961.3L4494.17 4961.35ZM4797.55 4884.99L4009.07 2808.92L4007.08 2778.88L4832.48 4905.68L4797.55 4884.99ZM4895.53 4931.31L4004.12 2634.54L4242.46 2627.14L5208.22 4921.92L4895.53 4931.31ZM5400.8 4935.76C5391.92 4954.5 5357.96 4966.81 5316.1 4966.81C5295.41 4966.81 5278.16 4963.84 5264.88 4959.91C5265.39 4959.4 5265.85 4959.4 5265.85 4958.94C5267.85 4955.46 5269.07 4951.58 5269.41 4947.59C5269.75 4943.59 5269.22 4939.56 5267.84 4935.8L5185.12 4739.21L5178.74 4115.01C5206.31 4136.21 5228.01 4158.37 5237.82 4185.95C5257.01 4238.67 5250.12 4291.88 5244.2 4339.18C5237.82 4390.41 5231.9 4434.28 5262.94 4462.33C5285.6 4483.01 5307.25 4489.41 5325.99 4495.84C5349.12 4503.24 5365.4 4508.15 5385.07 4537.71C5407.23 4571.22 5403.3 4598.29 5398.35 4635.27C5395.39 4656.92 5391.96 4680.58 5393.9 4707.69C5394.88 4726.9 5398.35 4748.6 5401.31 4771.74C5409.17 4827.83 5419.02 4898.27 5400.8 4935.76ZM5457.68 4914.39C5464.57 4868.74 5457.04 4814.43 5450.07 4764.81C5447.11 4743.15 5444.14 4722.41 5442.66 4704.22C5441.18 4682.56 5444.14 4661.84 5447.11 4642.16C5452.52 4601.77 5458.44 4559.88 5425.92 4510.64C5396.87 4466.81 5367.3 4456.96 5340.7 4448.58C5324.47 4443.67 5310.68 4439.23 5295.88 4425.9C5284.08 4415.07 5288.48 4381.06 5292.92 4345.61C5299.3 4295.36 5307.21 4232.79 5284.04 4169.25C5265.81 4119.97 5226.91 4086 5178.15 4054.48L5175.69 3828.36C5175.69 3791.43 5162.41 3756.44 5138.77 3728.35L4901.87 3445.55C4911.22 3360.31 4913.68 3293.3 4883.65 3258.82C4818.14 3182.97 4660.07 2920.35 4633.97 2833.16C4626.1 2808.03 4620.69 2773.55 4614.78 2737.09C4608.13 2695.54 4601.07 2653.66 4590.33 2616.69L4690.68 2613.64L5729.56 4906.23L5457.68 4914.39Z" fill="white"/>
</g>
<defs>
<clipPath id="clip0_503_2">
<rect width="7778" height="7778" fill="white"/>
</clipPath>
</defs>
</svg>
